{"glyphs":{":":{"x_min":0,"x_max":208,"ha":208,"o":"m 215 171 q 215 159 205 150 q 194 141 182 141 q 174 141 168 146 q 162 152 162 162 q 162 173 172 182 q 182 192 194 192 q 203 192 209 186 q 215 180 215 171 z m 75 24 q 75 12 65 3 q 54 -6 42 -6 q 34 -6 28 0 q 22 6 22 15 q 22 26 32 36 q 42 45 54 45 q 63 45 69 39 q 75 33 75 24 z"},"$":{"x_min":0,"x_max":410,"ha":410,"o":"m 212 13 l 154 -62 l 146 -57 l 204 18 q 191 28 179 39 l 120 -37 l 113 -32 l 173 46 q 132 95 132 146 q 132 177 146 198 q 159 219 176 219 q 184 219 190 213 q 196 207 196 199 q 196 191 190 185 q 185 180 176 180 q 169 180 164 184 q 158 188 157 188 q 152 188 147 174 q 141 160 141 143 q 141 98 179 53 l 308 219 q 289 251 282 268 q 275 284 275 301 q 275 340 305 371 q 334 401 381 401 q 408 401 437 387 l 482 447 l 489 441 l 445 383 q 459 374 471 365 l 514 420 l 520 415 l 478 358 q 500 336 510 309 q 521 283 521 262 q 521 241 510 224 q 499 207 485 207 q 476 207 470 213 q 464 220 464 228 q 464 236 470 243 q 477 250 485 250 q 490 250 495 246 q 501 243 503 243 q 510 243 510 263 q 510 287 499 312 q 488 337 472 352 l 364 211 q 402 155 402 109 q 402 64 368 29 q 333 -7 286 -7 q 246 -7 212 13 z m 431 379 q 412 387 392 387 q 358 387 337 364 q 315 341 315 310 q 315 289 335 256 z m 439 376 l 340 248 l 359 219 l 466 357 q 454 368 439 376 z m 186 47 q 196 36 211 26 l 332 184 q 322 200 312 212 z m 219 22 q 242 10 264 10 q 302 10 332 39 q 362 67 362 105 q 362 136 337 176 z"},"?":{"x_min":0,"x_max":309,"ha":309,"o":"m 100 56 q 134 95 175 123 q 217 152 293 190 l 326 206 q 363 225 386 249 q 409 274 409 293 q 409 308 399 316 q 389 324 374 324 q 326 324 267 286 q 208 247 208 232 q 208 214 232 214 q 292 214 380 295 l 382 292 q 357 265 312 238 q 267 210 233 210 q 216 210 206 219 q 196 228 196 241 q 196 272 246 301 q 296 329 359 329 q 392 329 406 315 q 421 301 421 280 q 421 252 403 226 q 385 200 361 187 q 338 173 265 152 q 159 121 103 53 z m 97 24 q 97 12 86 3 q 76 -6 63 -6 q 55 -6 49 0 q 43 6 43 15 q 43 26 53 36 q 63 45 76 45 q 84 45 91 39 q 97 33 97 24 z"},"<":{"x_min":0,"x_max":500,"ha":500,"o":"m 466 530 l 466 509 l 57 333 l 466 158 l 466 137 l 33 323 l 33 344 z"},"'":{"x_min":0,"x_max":122,"ha":122,"o":"m 184 218 l 170 218 l 338 394 l 375 394 z"},"=":{"x_min":0,"x_max":400,"ha":400,"o":"m 161 175 l 171 186 l 397 186 l 387 175 z m 110 124 l 121 135 l 347 135 l 336 124 z"},"a":{"x_min":0,"x_max":291,"ha":291,"o":"m 280 190 l 324 190 l 187 47 q 167 26 167 13 q 167 5 172 1 q 178 -3 184 -3 q 195 -3 221 14 q 247 31 321 94 l 324 91 q 246 24 220 9 q 194 -7 181 -7 q 169 -7 163 1 q 156 10 156 21 q 156 42 176 73 l 174 74 q 75 -7 39 -7 q 24 -7 15 5 q 7 18 7 38 q 7 93 85 141 q 164 189 217 189 q 245 189 245 166 q 245 161 244 152 z m 239 167 q 239 185 216 185 q 176 185 97 114 q 19 43 19 15 q 19 8 24 3 q 30 -3 40 -3 q 54 -3 86 15 q 119 33 166 74 q 213 114 226 133 q 239 151 239 167 z"},"L":{"x_min":0,"x_max":766,"ha":766,"o":"m 796 94 l 799 91 q 695 -9 516 -9 q 432 -9 354 17 q 277 -5 190 -5 q 111 -5 88 3 q 64 12 64 26 q 64 64 162 64 q 271 64 377 28 q 519 70 660 292 q 578 272 494 272 q 384 272 338 314 q 292 357 292 415 q 292 535 427 610 q 562 685 745 685 q 776 685 811 682 l 810 677 q 780 680 747 680 q 641 680 530 645 q 419 609 360 539 q 301 470 301 402 q 301 352 347 314 q 393 277 497 277 q 576 277 664 297 q 769 469 902 563 q 1036 658 1111 658 q 1137 658 1153 644 q 1169 629 1169 607 q 1169 536 1021 438 q 874 340 714 304 q 652 216 623 181 q 594 146 553 113 q 512 80 475 60 q 438 41 388 27 q 480 0 543 0 q 599 0 663 17 q 727 33 796 94 z m 718 309 q 902 355 1033 451 q 1164 548 1164 611 q 1164 629 1148 641 q 1132 654 1110 654 q 1060 654 989 610 q 917 567 840 479 q 763 391 718 309 z m 342 20 q 230 56 156 56 q 71 56 71 26 q 71 16 92 8 q 112 0 191 0 q 286 0 342 20 z"},"3":{"x_min":0,"x_max":296,"ha":296,"o":"m 264 188 q 304 179 304 143 q 304 83 226 38 q 147 -8 62 -8 q 25 -8 9 6 q -8 21 -8 41 q -8 57 3 69 q 14 81 27 81 q 37 81 43 75 q 50 69 50 60 q 50 51 44 44 q 38 38 28 38 q 18 38 13 44 q 8 51 6 51 q 0 51 0 39 q 0 19 16 8 q 33 -2 57 -2 q 121 -2 206 63 q 291 128 291 157 q 291 167 281 175 q 271 183 259 183 q 243 183 214 175 l 180 167 l 179 171 q 295 199 339 239 q 382 278 382 308 q 382 318 373 325 q 363 333 351 333 q 324 333 290 315 q 257 297 236 276 q 216 254 216 245 q 216 240 222 235 q 228 231 234 231 q 255 231 290 253 q 325 275 344 302 l 347 300 q 320 266 288 246 q 255 226 232 226 q 221 226 213 233 q 204 240 204 253 q 204 289 250 314 q 295 338 344 338 q 373 338 387 323 q 402 308 402 289 q 402 271 391 255 q 381 239 344 220 q 308 201 264 190 z"},";":{"x_min":0,"x_max":125,"ha":125,"o":"m 151 171 q 151 159 141 150 q 130 141 118 141 q 110 141 104 146 q 98 152 98 162 q 98 173 108 182 q 118 192 130 192 q 139 192 145 186 q 151 180 151 171 z m -75 -26 q -34 0 -18 36 q -12 49 -8 53 q -4 57 2 57 q 9 57 14 52 q 19 46 19 41 q 19 31 9 21 q -1 11 -28 -5 q -54 -21 -74 -29 z"},"J":{"x_min":0,"x_max":489,"ha":489,"o":"m 466 94 l 469 91 q 372 4 237 -31 q 128 -154 58 -210 q -13 -267 -46 -267 q -64 -267 -77 -255 q -90 -244 -90 -227 q -90 -190 -26 -142 q 39 -94 189 -42 q 269 55 450 318 q 412 323 388 349 q 364 375 364 408 q 364 469 432 532 q 500 595 616 633 q 732 672 845 672 q 884 672 929 667 l 929 663 q 813 644 711 576 q 609 509 494 320 q 562 322 627 374 q 693 426 725 491 l 729 489 q 699 422 628 368 q 557 314 490 314 q 471 280 418 207 l 353 115 q 279 13 243 -22 q 285 -16 338 9 q 391 34 437 70 z m 453 323 q 531 441 640 535 q 748 628 903 664 q 880 667 848 667 q 729 667 617 627 q 505 587 440 520 q 375 453 375 399 q 375 369 399 346 q 424 323 453 323 z m 184 -50 q 59 -89 -11 -139 q -82 -188 -82 -227 q -82 -240 -72 -249 q -62 -259 -46 -259 q -26 -259 10 -235 q 46 -212 113 -133 z"},"V":{"x_min":0,"x_max":681,"ha":681,"o":"m 315 -1 q 356 31 396 75 q 435 120 498 207 l 568 306 q 601 352 660 414 l 850 609 l 847 611 q 759 545 691 545 q 662 545 645 560 q 628 574 628 590 q 628 601 635 613 q 643 625 643 629 q 643 644 612 658 q 581 673 536 673 q 463 673 396 630 q 330 587 330 530 q 330 496 358 475 q 387 453 428 453 q 514 453 615 537 l 617 534 q 528 439 438 439 q 395 439 359 465 q 324 492 324 528 q 324 591 390 634 q 457 678 540 678 q 599 678 636 652 q 673 627 673 603 q 673 594 669 583 q 664 572 664 568 q 664 561 672 556 q 680 551 692 551 q 788 551 919 684 l 924 678 l 874 627 q 829 583 790 533 q 750 484 681 388 l 637 325 q 600 273 515 181 q 431 89 330 4 l 332 0 q 368 5 409 25 q 450 44 513 87 q 576 129 643 190 q 710 251 836 384 q 962 518 1034 578 q 1107 638 1167 666 q 1228 693 1273 693 q 1314 693 1337 675 q 1360 657 1360 631 q 1360 613 1349 601 q 1337 588 1323 588 q 1312 588 1304 596 q 1297 603 1297 612 q 1297 623 1304 630 q 1312 638 1322 638 q 1333 638 1342 627 q 1348 627 1348 637 q 1348 657 1328 672 q 1309 687 1273 687 q 1233 687 1190 670 q 1146 654 1092 615 q 1037 576 988 531 q 940 487 783 322 q 627 157 514 80 q 401 3 319 -8 z"},"\"":{"x_min":0,"x_max":226,"ha":226,"o":"m 188 218 l 174 218 l 343 394 l 379 394 z m 278 218 l 264 218 l 433 394 l 469 394 z"},"7":{"x_min":0,"x_max":275,"ha":275,"o":"m 467 325 q 442 300 368 240 q 203 108 117 -1 l 62 -2 q 155 92 280 183 l 374 250 l 410 280 l 410 283 q 389 277 377 277 q 361 277 330 292 q 299 307 284 307 q 258 307 222 286 q 187 265 165 241 l 161 244 l 257 332 l 260 327 l 218 289 q 285 328 323 328 q 333 328 341 324 q 349 321 365 309 l 377 299 q 390 290 403 290 q 413 290 425 296 q 436 303 464 327 z"},"S":{"x_min":0,"x_max":632,"ha":632,"o":"m 725 359 q 590 137 464 66 q 337 -5 207 -5 q 145 -5 108 18 q 72 40 72 77 q 72 101 87 117 q 102 133 123 133 q 136 133 146 126 q 155 119 155 106 q 155 95 147 87 q 139 79 127 79 q 117 79 109 86 q 102 92 102 101 q 102 103 103 107 q 99 109 98 109 q 92 109 86 100 q 81 90 81 78 q 81 43 113 22 q 146 0 207 0 q 289 0 368 34 q 447 67 511 133 q 575 198 673 345 q 562 314 475 314 q 379 314 326 353 q 274 391 274 447 q 274 541 374 610 q 474 679 643 679 q 683 679 727 675 l 726 670 q 687 675 650 675 q 482 675 381 598 q 280 520 280 443 q 280 394 331 357 q 381 319 479 319 q 548 319 678 351 q 765 489 878 569 q 991 649 1058 649 q 1079 649 1092 639 q 1104 628 1104 614 q 1104 575 1050 524 q 996 472 890 422 q 785 371 725 359 z m 729 365 q 857 399 977 479 q 1096 558 1096 612 q 1096 625 1086 634 q 1077 643 1059 643 q 1016 643 959 613 q 902 584 833 508 q 765 431 729 365 z"},"}":{"x_min":0,"x_max":365,"ha":365,"o":"m 480 341 q 479 341 473 343 q 469 344 466 345 l 460 348 q 458 350 456 352 q 454 354 452 356 q 450 358 449 361 q 448 363 448 366 q 447 369 447 373 q 447 385 456 400 q 464 416 492 455 l 563 552 q 574 566 587 589 q 600 611 600 622 q 600 637 592 646 q 584 655 573 658 q 562 661 530 661 l 535 667 q 613 666 629 659 q 646 652 646 634 q 646 606 602 546 l 506 416 q 485 387 485 373 q 485 345 535 345 l 531 338 q 488 336 458 323 q 429 310 396 266 l 290 121 q 260 81 237 58 q 214 35 189 22 q 165 9 143 5 q 122 1 60 0 l 64 6 q 103 6 124 11 q 145 17 164 29 q 183 41 198 57 q 212 73 243 115 l 325 228 q 338 246 353 263 q 361 274 368 282 q 376 290 386 298 q 395 305 403 311 q 412 317 421 322 q 431 327 440 331 q 450 334 460 337 q 476 341 480 341 z"},"Z":{"x_min":0,"x_max":669,"ha":669,"o":"m 699 94 l 703 91 q 631 28 596 9 q 560 -11 529 -11 q 505 -11 492 4 q 479 19 479 37 q 479 70 541 114 q 579 142 579 157 q 579 169 566 177 q 554 184 535 184 q 505 184 471 176 q 438 168 366 140 l 310 116 q 296 110 284 101 q 145 -7 115 -7 q 100 -7 100 5 q 100 11 108 18 q 116 25 177 59 q 239 92 304 119 q 340 150 364 174 q 389 197 446 253 q 502 310 541 345 q 513 361 495 361 q 466 361 423 323 l 419 327 q 442 351 469 365 q 497 378 518 378 q 543 378 563 366 l 588 390 q 622 422 665 454 l 730 502 q 707 499 689 499 q 653 499 631 512 q 609 525 609 545 q 609 554 613 562 q 617 570 626 582 q 636 594 636 601 q 636 619 606 631 q 577 643 527 643 q 433 643 364 595 q 294 548 294 503 q 294 474 324 456 q 354 438 391 438 q 483 438 578 513 l 580 511 q 547 480 493 456 q 439 433 389 433 q 348 433 319 452 q 290 471 290 500 q 290 553 361 600 q 432 647 527 647 q 596 647 633 622 q 670 597 670 575 q 670 561 657 545 q 645 530 645 524 q 645 504 686 504 l 707 504 q 717 505 729 507 q 741 510 741 510 l 799 557 q 844 594 889 621 q 934 649 956 649 q 966 649 972 644 q 978 639 978 631 q 978 620 968 607 q 958 594 917 571 q 876 547 836 531 q 796 514 745 504 q 726 490 696 458 l 655 415 q 630 389 593 352 q 628 337 641 337 q 667 337 711 377 l 713 374 q 659 317 621 317 q 603 317 573 332 q 547 303 441 220 l 327 132 l 328 129 q 420 167 459 178 q 497 189 530 189 q 566 189 583 172 q 600 156 600 136 q 600 114 586 96 q 573 78 537 52 q 500 25 500 13 q 500 6 510 0 q 519 -5 530 -5 q 589 -5 699 94 z m 753 512 q 794 519 835 536 q 876 553 914 575 q 953 597 962 608 q 972 620 972 630 q 972 642 956 642 q 928 642 863 597 q 798 553 753 512 z"},"x":{"x_min":0,"x_max":283,"ha":283,"o":"m 34 91 l 30 94 l 86 141 q 126 173 144 184 q 162 194 179 194 q 191 194 202 184 q 212 174 212 158 q 212 147 208 130 q 265 192 296 192 q 317 192 317 173 q 317 162 309 153 q 300 144 291 144 q 278 144 278 157 q 278 164 284 170 q 290 175 298 175 q 301 175 304 174 q 307 173 308 173 q 311 173 311 177 q 311 187 296 187 q 269 187 205 112 q 142 37 142 17 q 142 9 149 2 q 156 -4 165 -4 q 197 -4 280 66 l 313 94 l 316 91 q 236 21 207 6 q 178 -9 162 -9 q 150 -9 140 -1 q 129 7 129 24 q 129 37 135 55 q 83 10 65 0 q 47 -10 32 -10 q 19 -10 11 -3 q 3 3 3 13 q 3 26 15 37 q 26 48 37 48 q 42 48 47 44 q 51 41 51 36 q 51 28 44 22 q 37 16 28 16 q 24 16 21 19 q 17 22 17 22 q 15 22 12 19 q 10 16 10 12 q 10 5 16 0 q 23 -4 31 -4 q 65 -4 131 69 q 198 142 198 169 q 198 188 179 188 q 163 188 143 176 q 123 164 78 127 z"},")":{"x_min":0,"x_max":317,"ha":317,"o":"m 129 -2 q 218 74 269 129 q 320 185 385 283 q 451 381 495 473 q 540 565 569 667 l 573 667 q 530 437 445 295 q 359 153 132 -8 z"},"&":{"x_min":0,"x_max":437,"ha":437,"o":"m 288 75 q 294 35 294 6 q 294 -102 209 -169 q 125 -236 20 -236 q -26 -236 -57 -218 q -88 -200 -88 -173 q -88 -139 -56 -115 q -23 -91 21 -91 q 47 -91 75 -102 l 73 -104 q 44 -96 20 -96 q -21 -96 -52 -119 q -83 -143 -83 -171 q -83 -194 -56 -211 q -28 -228 14 -228 q 106 -228 196 -138 q 285 -49 285 42 q 285 52 283 69 q 231 21 199 5 q 168 -11 140 -11 q 107 -11 92 7 q 77 24 77 44 q 77 79 107 109 q 137 139 173 148 l 267 171 q 268 224 303 259 q 339 294 376 294 q 393 294 403 286 q 412 277 412 264 q 412 238 385 213 q 357 188 274 167 q 275 132 286 91 q 354 157 386 177 q 418 196 442 196 q 462 196 474 187 q 486 177 486 165 q 486 157 479 150 q 472 144 464 144 q 457 144 452 149 q 446 154 446 162 q 446 172 454 178 q 462 183 462 185 q 462 188 455 190 q 448 192 442 192 q 425 192 408 184 q 391 176 358 147 q 325 117 288 75 z m 272 173 q 336 186 371 211 q 406 236 406 264 q 406 289 375 289 q 337 289 305 254 q 272 218 272 173 z m 279 85 l 272 128 q 269 152 268 154 l 267 166 q 204 148 174 128 q 144 108 121 75 q 98 42 98 24 q 98 12 108 3 q 118 -6 135 -6 q 167 -6 207 18 q 247 42 279 85 z"},"_":{"x_min":0,"x_max":500,"ha":500,"o":"m -109 -109 l 391 -109 l 380 -120 l -120 -120 z"},"v":{"x_min":0,"x_max":322,"ha":322,"o":"m 33 91 l 30 94 l 99 152 q 111 162 137 178 q 163 194 181 194 q 189 194 197 187 q 205 180 205 168 q 205 153 194 132 q 184 110 145 77 q 106 44 98 34 q 90 25 90 17 q 90 2 110 2 q 137 2 190 30 q 243 58 276 89 q 293 134 319 164 q 344 193 353 193 q 360 193 360 184 q 360 172 331 136 q 302 101 282 86 q 283 66 301 66 q 319 66 352 94 l 355 91 l 338 78 q 317 61 301 61 q 282 61 274 81 q 230 44 181 20 q 132 -5 111 -5 q 100 -5 89 4 q 78 13 78 30 q 78 49 90 68 q 102 87 147 124 q 191 160 191 175 q 191 179 186 184 q 181 189 175 189 q 153 189 84 133 z"},"O":{"x_min":0,"x_max":703,"ha":703,"o":"m 826 589 q 816 481 746 405 q 676 328 610 328 q 583 328 570 344 q 556 361 556 387 q 556 440 596 500 q 636 560 696 595 q 756 631 799 631 q 829 631 852 610 q 876 589 876 553 q 876 453 783 329 q 691 205 549 98 q 408 -8 324 -8 q 266 -8 236 31 q 207 70 207 121 q 207 230 319 363 q 432 495 594 589 q 756 682 892 682 q 955 682 994 656 q 1032 630 1032 587 q 1032 547 997 520 q 961 493 917 493 q 911 493 900 494 l 899 498 l 914 498 q 958 498 993 522 q 1027 547 1027 587 q 1027 630 989 654 q 951 679 894 679 q 755 679 608 578 q 461 477 344 319 q 227 161 227 81 q 227 44 256 21 q 285 -3 321 -3 q 408 -3 542 97 q 676 196 774 323 q 872 449 872 550 q 872 585 850 605 q 828 625 800 625 q 732 625 646 539 q 561 453 561 384 q 561 358 575 345 q 589 332 609 332 q 653 332 705 371 q 756 410 789 474 q 821 538 823 590 z"},"(":{"x_min":0,"x_max":317,"ha":317,"o":"m 621 661 q 531 583 480 529 q 430 474 363 374 q 297 274 253 182 q 209 90 181 -8 l 178 -8 q 217 210 301 356 q 385 502 619 667 z"},"C":{"x_min":0,"x_max":777,"ha":777,"o":"m 561 330 l 491 258 q 379 144 379 75 q 379 45 406 22 q 433 -1 486 -1 q 557 -1 635 33 q 713 67 754 109 q 795 152 795 189 q 795 213 774 228 q 753 242 728 242 q 662 242 572 189 q 483 136 433 59 l 429 61 q 477 136 568 191 q 659 246 728 246 q 760 246 780 229 q 800 213 800 190 q 800 118 690 55 q 581 -7 492 -7 q 427 -7 396 21 q 364 49 364 95 q 364 125 374 156 q 385 188 426 243 q 467 299 499 325 q 477 324 466 324 q 377 324 329 363 q 282 402 282 455 q 282 549 379 613 q 477 677 641 677 q 669 677 703 675 l 702 670 q 672 672 648 672 q 472 672 381 594 q 291 516 291 444 q 291 403 335 365 q 380 328 465 328 q 477 328 502 330 q 620 453 781 546 q 942 639 1050 639 q 1077 639 1093 626 q 1109 613 1109 595 q 1109 551 1037 495 q 965 438 826 389 q 688 340 561 330 z m 566 335 q 699 346 835 397 q 972 448 1036 504 q 1101 561 1101 597 q 1101 612 1086 623 q 1071 633 1049 633 q 958 633 854 569 q 751 504 644 405 z"},"W":{"x_min":0,"x_max":885,"ha":885,"o":"m 333 -1 q 381 35 445 126 l 509 219 q 577 317 638 389 q 700 461 845 602 l 843 604 q 746 537 679 537 q 654 537 635 549 q 617 562 617 581 q 617 588 618 592 q 620 595 628 605 q 636 616 636 620 q 636 639 598 653 q 560 668 524 668 q 456 668 389 625 q 321 583 321 529 q 321 501 349 478 q 377 455 431 455 q 477 455 517 469 q 558 484 609 527 l 612 523 q 523 440 437 440 q 388 440 351 467 q 315 494 315 526 q 315 584 385 630 q 455 675 537 675 q 589 675 629 650 q 669 624 669 593 q 669 583 661 573 q 652 562 652 558 q 652 544 676 544 q 784 544 927 680 l 933 677 q 863 615 817 562 q 771 509 675 375 q 578 241 512 167 q 445 92 351 7 l 352 5 q 389 17 447 54 q 504 90 553 134 q 602 178 685 267 q 810 401 909 496 q 1007 591 1143 683 l 1146 678 q 1078 622 1027 558 q 976 495 906 393 q 836 292 788 234 q 741 175 668 102 q 596 28 562 3 l 562 0 q 642 18 731 88 q 820 158 1030 373 l 1113 456 q 1147 491 1220 555 q 1293 619 1360 650 q 1426 682 1481 682 q 1515 682 1539 665 q 1563 648 1563 624 q 1563 607 1552 594 q 1541 581 1527 581 q 1517 581 1509 589 q 1501 597 1501 606 q 1501 615 1508 622 q 1515 629 1525 629 q 1536 629 1542 623 q 1549 616 1550 616 q 1555 616 1555 626 q 1555 646 1534 661 q 1513 676 1482 676 q 1424 676 1345 636 q 1267 596 1129 463 l 923 257 q 760 95 679 45 q 598 -5 540 -8 q 602 35 708 187 l 793 306 q 818 341 893 429 q 968 517 1094 639 l 1092 640 q 983 570 812 393 l 622 192 q 590 159 548 123 q 507 87 465 59 q 422 30 395 17 q 368 3 335 -5 z"},"A":{"x_min":0,"x_max":779,"ha":779,"o":"m 667 39 l 640 0 l 586 1 l 617 45 q 527 61 457 111 q 308 -9 174 -9 q 117 -9 69 21 q 21 52 21 99 q 21 124 36 138 q 50 153 68 153 q 84 153 95 142 q 106 131 106 116 q 106 103 97 93 q 87 84 74 84 q 43 84 41 124 l 39 125 q 27 110 27 93 q 27 54 74 24 q 120 -5 181 -5 q 253 -5 333 35 q 412 75 453 115 q 344 217 344 335 q 344 407 382 457 q 420 507 478 507 q 542 507 596 455 q 649 403 677 318 q 879 506 966 564 q 1053 623 1123 652 q 1193 681 1255 684 l 1118 559 q 1020 470 872 297 q 724 123 671 44 q 754 49 809 94 l 812 91 q 757 45 667 39 z m 678 312 q 685 284 685 254 q 685 181 642 83 l 646 81 q 775 259 955 439 q 1134 620 1233 673 l 1232 677 q 1138 668 1010 588 q 882 509 678 312 z m 457 118 q 495 147 569 215 q 644 283 673 315 q 653 385 603 436 q 554 486 495 486 q 433 486 392 441 q 351 396 351 327 q 351 213 457 118 z m 621 49 q 681 164 681 254 q 681 280 674 310 q 552 189 460 114 q 486 93 533 73 q 581 54 621 49 z"},"f":{"x_min":0,"x_max":198,"ha":198,"o":"m 33 91 l 30 94 q 56 117 96 144 q 105 169 118 185 q 130 201 137 201 q 143 201 143 194 q 143 188 128 166 l 215 221 q 224 227 246 249 q 342 346 395 393 q 447 439 498 477 q 548 514 570 524 q 593 534 607 534 q 617 534 625 528 q 632 522 632 513 q 632 483 587 435 q 542 386 442 326 q 342 265 271 242 l 120 76 q 136 62 160 62 q 190 62 228 94 l 231 91 q 191 56 159 56 q 134 56 115 70 l -169 -234 l -217 -234 l -72 -82 q -10 -16 42 58 q 93 132 93 136 q 71 122 66 118 q 61 114 57 111 z m 625 514 q 625 520 620 524 q 614 528 605 528 q 591 528 564 515 q 537 502 496 468 q 454 434 367 344 q 280 253 280 250 q 280 248 363 288 q 446 329 510 378 q 575 427 600 462 q 625 498 625 514 z m 101 140 q 95 126 95 117 q 95 108 101 97 l 205 205 l 203 207 z m 96 92 q 93 98 92 101 l 89 117 q 68 79 10 5 l 13 4 z"},"Q":{"x_min":0,"x_max":700,"ha":700,"o":"m 730 94 l 733 91 q 629 -1 535 -1 q 481 -1 458 43 q 381 -4 319 -4 q 274 -4 241 29 q 208 62 208 117 q 208 180 234 237 q 260 295 332 376 q 405 457 498 528 q 591 598 697 638 q 803 678 900 678 q 961 678 996 651 q 1032 624 1032 584 q 1032 542 993 517 q 955 493 917 493 q 912 493 904 493 l 903 497 l 916 497 q 949 497 986 519 q 1022 542 1022 583 q 1022 621 991 647 q 960 673 895 673 q 784 673 672 620 q 559 568 440 441 q 321 314 272 233 q 223 152 223 93 q 223 54 252 27 q 280 0 319 0 q 351 0 389 14 q 428 28 454 47 l 433 100 q 420 129 394 129 q 355 129 289 81 l 287 85 q 354 137 402 137 q 417 137 434 130 q 450 122 457 115 q 463 107 474 85 l 484 64 q 630 151 750 297 q 869 443 869 541 q 869 581 844 601 q 819 621 793 621 q 735 621 659 555 q 582 489 526 396 q 470 303 458 230 l 455 230 q 467 317 526 416 q 584 515 662 571 q 740 626 794 626 q 823 626 848 603 q 874 581 874 543 q 874 438 751 292 q 627 146 487 61 q 511 18 575 18 q 637 18 707 76 z"},"w":{"x_min":0,"x_max":485,"ha":485,"o":"m 33 91 l 30 94 l 90 144 q 152 196 175 196 q 187 196 194 186 q 202 177 202 164 q 202 147 192 129 q 183 112 144 78 q 104 44 96 34 q 87 23 87 16 q 87 0 104 0 q 126 0 169 31 q 212 61 236 81 l 356 190 l 401 190 l 375 160 l 308 91 q 269 51 259 39 q 250 27 250 19 q 250 9 257 4 q 265 -1 274 -1 q 305 -1 351 23 q 396 47 444 89 q 454 125 474 158 q 495 191 507 191 q 515 191 515 182 q 515 165 492 135 q 469 105 450 89 l 450 83 q 450 76 455 72 q 461 67 468 67 q 476 67 483 70 q 490 73 515 94 l 518 91 q 486 62 468 62 q 447 62 443 82 q 400 42 352 18 q 304 -6 271 -6 q 257 -6 248 4 q 238 13 238 28 q 238 47 252 69 q 266 90 325 149 l 323 152 l 245 82 q 214 55 170 25 q 126 -5 104 -5 q 94 -5 85 4 q 77 13 77 29 q 77 53 91 72 q 105 92 147 126 q 189 161 189 179 q 189 191 176 191 q 165 191 144 178 q 123 166 71 122 z"},"-":{"x_min":0,"x_max":132,"ha":132,"o":"m 15 101 l 20 106 l 149 106 l 146 101 z"},"E":{"x_min":0,"x_max":696,"ha":696,"o":"m 599 427 q 600 401 613 389 l 625 389 q 663 389 682 381 q 701 373 701 363 q 701 356 694 352 q 688 348 680 348 q 643 348 611 384 q 465 364 372 259 q 279 155 279 81 q 279 46 310 21 q 341 -3 396 -3 q 500 -3 607 61 q 714 125 714 200 q 714 225 696 242 q 679 258 648 258 q 573 258 481 200 q 390 143 338 65 l 334 67 q 387 144 478 203 q 570 262 646 262 q 681 262 701 243 q 721 224 721 199 q 721 122 611 57 q 500 -7 399 -7 q 325 -7 290 31 q 254 70 254 120 q 254 207 336 281 q 417 354 608 388 q 594 402 586 424 q 506 408 455 408 q 375 408 332 443 q 289 478 289 522 q 289 609 390 665 q 491 721 623 721 l 623 717 q 481 717 391 653 q 301 589 301 514 q 301 475 342 443 q 383 412 461 412 q 511 412 586 428 q 581 446 581 460 q 581 513 625 564 q 670 616 761 661 q 853 706 913 706 q 942 706 960 693 q 979 681 979 657 q 979 605 876 536 q 773 467 599 427 z m 600 431 q 778 474 876 541 q 974 607 974 660 q 974 679 958 690 q 941 702 914 702 q 832 702 722 608 q 612 515 600 431 z m 616 384 q 647 352 680 352 q 695 352 695 362 q 695 374 674 379 q 653 385 634 385 q 628 385 616 384 z"},"s":{"x_min":0,"x_max":175,"ha":175,"o":"m 33 91 l 30 94 l 209 244 l 212 239 q 191 223 186 214 q 180 206 180 193 q 180 183 183 162 q 187 141 187 123 q 187 87 161 57 l 205 94 l 208 91 q 99 -6 30 -6 q 14 -6 2 4 q -10 13 -10 28 q -10 40 -3 48 q 5 56 15 56 q 21 56 26 51 q 31 47 31 41 q 31 33 24 26 q 18 20 10 20 q 7 20 2 21 q 2 0 30 0 q 68 0 117 56 q 166 112 170 174 q 172 194 177 210 z"},">":{"x_min":0,"x_max":500,"ha":500,"o":"m 34 530 l 466 344 l 466 323 l 34 137 l 34 158 l 443 333 l 34 509 z"},"l":{"x_min":0,"x_max":209,"ha":209,"o":"m 33 91 l 30 94 q 137 186 156 199 q 174 212 184 217 q 195 222 202 229 q 285 318 361 388 q 438 457 491 495 q 545 534 582 534 q 595 534 604 526 q 613 518 613 508 q 613 479 550 424 q 488 368 396 312 q 303 256 254 242 q 243 229 212 196 l 173 153 l 124 95 q 73 34 69 17 l 69 13 q 69 -3 87 -3 q 129 -3 239 94 l 243 91 l 213 65 q 124 -10 84 -10 q 72 -10 63 -1 q 54 9 54 22 q 54 58 110 126 q 166 195 182 206 l 182 208 q 164 201 130 171 z m 261 250 q 300 262 393 317 q 487 372 546 427 q 606 482 606 508 q 606 516 599 522 q 591 528 580 528 q 551 528 509 500 q 467 472 381 382 q 295 293 261 250 z"},"8":{"x_min":0,"x_max":289,"ha":289,"o":"m 266 188 q 280 156 280 131 q 280 75 224 34 q 168 -8 111 -8 q 80 -8 60 9 q 40 26 40 56 q 40 101 86 131 q 132 160 224 177 q 209 209 209 229 q 209 268 250 301 q 290 334 341 334 q 367 334 386 323 q 406 311 406 292 q 406 257 365 227 q 324 197 266 188 z m 264 192 q 317 199 357 228 q 397 257 397 291 q 397 311 379 320 q 360 329 338 329 q 300 329 271 306 q 242 282 242 253 q 242 229 264 192 z m 226 172 q 125 152 86 118 q 46 85 46 48 q 46 27 64 12 q 81 -3 112 -3 q 164 -3 204 31 q 243 65 243 113 q 243 142 226 172 z"},"\\":{"x_min":0,"x_max":682,"ha":682,"o":"m 542 666 l 549 667 l 665 -35 l 658 -36 z"},"e":{"x_min":0,"x_max":197,"ha":197,"o":"m 228 94 l 231 91 q 172 39 124 16 q 76 -7 47 -7 q 7 -7 7 34 q 7 89 82 138 q 158 187 200 187 q 208 187 214 182 q 219 178 219 171 q 219 147 172 121 q 125 95 67 88 q 17 39 17 20 q 17 11 26 4 q 35 -4 46 -4 q 72 -4 118 18 q 165 41 228 94 z m 74 94 q 89 94 126 107 q 163 120 188 140 q 212 160 212 173 q 212 182 202 182 q 189 182 174 174 q 158 167 127 142 q 96 118 74 94 z"},"b":{"x_min":0,"x_max":307,"ha":307,"o":"m 33 91 l 30 94 l 146 191 q 168 209 194 223 l 326 356 q 392 422 470 483 q 549 544 583 544 q 613 544 613 519 q 613 484 563 434 q 514 384 430 331 q 346 279 298 258 q 251 238 241 227 l 136 112 q 70 40 70 17 q 70 8 77 2 q 85 -4 94 -4 q 121 -4 171 27 q 222 58 252 89 q 265 122 289 155 q 313 188 323 188 q 331 188 331 179 q 331 167 301 130 q 271 94 255 83 q 253 76 253 71 q 253 63 259 58 q 265 53 272 53 q 281 53 292 59 q 302 65 336 94 l 339 91 l 310 66 q 290 48 271 48 q 262 48 254 54 q 247 61 246 74 q 137 -10 96 -10 q 81 -10 70 1 q 59 12 59 29 q 59 70 99 117 l 178 204 q 179 205 182 207 l 181 209 q 160 198 146 185 q 132 172 85 134 z m 263 250 q 260 246 305 268 q 334 281 373 303 q 429 334 466 360 q 504 387 537 418 q 569 450 584 471 q 598 492 602 502 q 606 512 606 520 q 606 539 584 539 q 553 539 491 486 q 429 433 359 357 z"},"%":{"x_min":0,"x_max":525,"ha":525,"o":"m 125 166 q 125 222 208 277 q 291 333 326 333 q 359 333 359 303 q 359 267 280 197 q 202 128 158 128 q 125 128 125 166 z m 348 304 q 348 323 329 323 q 302 323 255 282 q 208 242 174 208 q 140 173 140 152 q 140 138 159 138 q 198 138 273 204 q 348 270 348 304 z m 155 0 l 500 325 l 503 321 l 157 -4 z m 318 33 q 318 89 401 144 q 484 199 520 199 q 552 199 552 170 q 552 134 474 64 q 395 -6 351 -6 q 318 -6 318 33 z m 542 171 q 542 189 521 189 q 507 189 482 175 q 458 160 410 116 q 363 73 348 53 q 333 32 333 19 q 333 4 352 4 q 375 4 403 24 q 432 43 464 68 q 496 94 519 124 q 542 154 542 171 z"},"m":{"x_min":0,"x_max":550,"ha":550,"o":"m 33 91 l 30 94 l 79 135 q 152 195 183 195 q 210 195 210 165 q 210 137 168 91 l 170 89 q 295 193 341 193 q 355 193 364 185 q 373 176 373 166 q 373 138 326 88 l 328 87 q 361 119 395 143 q 430 167 453 178 q 477 189 494 189 q 526 189 526 161 q 526 137 508 114 q 490 91 428 42 q 411 27 411 19 q 411 1 433 1 q 455 1 484 19 q 512 36 580 94 l 583 91 q 503 23 477 10 q 450 -4 433 -4 q 419 -4 409 6 q 400 15 400 28 q 400 46 414 65 q 428 84 471 118 q 514 151 514 169 q 514 183 495 183 q 471 183 431 161 q 392 139 341 93 l 283 39 q 257 15 243 0 l 198 -1 l 265 65 q 318 118 336 140 q 354 162 354 173 q 354 178 350 183 q 345 188 337 188 q 315 188 269 157 q 222 127 170 83 l 76 0 l 32 -1 l 50 18 l 113 80 q 163 129 179 148 q 195 167 195 178 q 195 189 182 189 q 164 189 131 167 q 98 145 33 91 z"},"#":{"x_min":0,"x_max":328,"ha":328,"o":"m 267 153 l 153 27 l 144 27 l 257 153 l 193 153 l 80 27 l 69 27 l 183 153 l 110 153 l 115 161 l 190 161 l 246 224 l 175 224 l 180 232 l 253 232 l 359 350 l 370 350 l 264 232 l 328 232 l 434 350 l 442 350 l 337 232 l 405 232 l 399 224 l 330 224 l 274 161 l 340 161 l 335 153 z m 320 224 l 256 224 l 200 161 l 264 161 z"},",":{"x_min":0,"x_max":118,"ha":118,"o":"m -75 -26 q -34 0 -18 36 q -12 49 -8 53 q -4 57 2 57 q 9 57 14 52 q 19 46 19 41 q 19 31 9 21 q -1 11 -28 -5 q -54 -21 -74 -29 z"},"n":{"x_min":0,"x_max":383,"ha":383,"o":"m 30 94 q 145 190 187 190 q 196 190 203 184 q 210 177 210 166 q 210 134 169 90 l 171 88 q 286 189 330 189 q 363 189 363 161 q 363 142 349 122 q 336 102 300 71 q 265 41 256 31 q 248 22 248 15 q 248 10 252 6 q 257 2 263 2 q 278 2 310 18 q 341 34 381 67 l 413 94 l 416 91 q 311 -3 261 -3 q 250 -3 243 6 q 235 14 235 27 q 235 39 241 52 q 247 64 255 73 q 262 82 291 106 l 313 125 q 352 158 352 170 q 352 184 332 184 q 296 184 231 133 q 167 82 82 0 l 33 0 l 168 134 q 200 166 200 175 q 200 187 186 187 q 147 187 33 91 z"},"h":{"x_min":0,"x_max":359,"ha":359,"o":"m 33 91 l 30 94 l 77 133 q 115 165 167 201 q 220 237 221 238 l 355 375 q 395 416 433 449 q 471 481 507 504 q 544 527 564 533 q 583 540 595 540 q 625 540 625 511 q 625 474 541 405 q 457 337 323 276 q 267 250 260 242 l 208 184 q 154 125 100 58 l 104 57 q 158 108 218 150 q 278 192 307 192 q 337 192 337 161 q 337 142 328 123 q 318 105 286 77 l 256 52 q 224 24 224 12 q 224 0 238 0 q 282 0 389 94 l 392 91 l 354 59 q 325 34 291 14 q 257 -5 239 -5 q 226 -5 219 5 q 211 15 211 30 q 211 48 222 63 q 233 78 271 110 q 309 142 318 152 q 326 163 326 171 q 326 178 320 183 q 314 188 307 188 q 296 188 272 177 q 248 166 204 135 q 160 103 117 62 q 74 21 50 0 l 1 0 l 203 216 l 201 218 q 157 193 33 91 z m 617 513 q 617 533 596 533 q 566 533 521 502 q 476 472 379 370 q 282 269 282 264 q 282 263 346 292 q 384 311 423 333 q 482 367 522 398 q 562 429 588 459 q 608 483 614 499 q 617 506 617 513 z"},"z":{"x_min":0,"x_max":298,"ha":298,"o":"m 33 91 l 30 94 l 96 149 q 145 189 165 189 q 175 189 183 182 q 190 174 190 164 q 190 149 175 138 q 159 128 159 123 q 159 116 168 116 q 178 116 198 125 q 219 134 230 144 q 278 186 287 186 q 293 186 293 181 q 293 177 274 162 q 255 147 212 126 q 181 101 139 59 q 187 83 202 83 q 213 83 220 76 q 226 68 226 58 q 226 37 205 24 q 184 11 184 5 q 184 1 187 -1 q 191 -4 195 -4 q 213 -4 283 56 l 328 94 l 331 91 l 269 38 q 214 -9 192 -9 q 182 -9 175 -1 q 167 6 167 19 q 167 39 196 57 q 208 65 208 71 q 208 78 199 78 q 187 78 162 65 q 138 52 126 46 q 125 46 116 38 l 96 21 q 60 -9 51 -9 q 44 -9 44 -3 q 44 1 67 18 q 89 36 123 50 l 188 113 l 188 115 q 174 111 167 111 q 157 111 150 117 q 143 124 143 132 q 143 148 161 162 q 174 172 174 177 q 174 184 166 184 q 156 184 138 174 q 119 163 33 91 z"},"B":{"x_min":0,"x_max":943,"ha":943,"o":"m 1088 583 q 1124 538 1124 487 q 1124 425 1077 378 q 1030 330 936 307 q 965 281 965 222 q 965 161 925 105 q 886 50 821 21 q 757 -7 705 -7 q 686 -7 672 3 q 659 13 659 27 q 659 71 733 127 q 806 183 875 191 l 876 188 q 802 176 733 122 q 664 67 664 27 q 664 13 675 6 q 686 -1 700 -1 q 747 -1 809 42 q 871 85 912 148 q 954 211 954 250 q 954 286 929 305 q 904 301 881 301 q 863 301 855 307 q 846 312 846 318 q 846 332 871 332 q 899 332 930 312 q 983 321 1043 392 q 1104 463 1104 526 q 1104 557 1083 580 q 1026 542 958 472 q 891 401 871 374 l 782 255 q 741 201 703 162 q 664 124 615 90 q 565 56 512 31 q 459 7 409 -5 q 359 -17 312 -17 q 242 -17 200 7 q 158 30 158 68 q 158 83 168 94 q 178 105 192 105 q 205 105 213 97 q 221 89 221 77 q 221 65 213 56 q 205 48 194 48 q 185 48 175 57 q 172 55 172 52 q 172 29 208 9 q 244 -11 315 -11 q 396 -11 465 20 q 534 50 594 106 q 655 163 765 288 l 812 342 q 937 483 1079 584 q 1044 626 968 655 q 891 683 791 683 q 660 683 539 636 q 419 589 347 508 q 275 428 275 348 q 275 301 318 269 q 360 236 414 236 q 482 236 571 274 q 660 311 717 365 q 775 419 775 474 q 775 503 747 523 q 720 542 683 542 q 603 542 512 479 q 421 417 363 318 l 359 320 q 413 415 506 481 q 599 547 682 547 q 721 547 750 526 q 780 505 780 474 q 780 392 671 310 q 562 229 439 229 q 359 229 314 263 q 270 298 270 348 q 270 434 347 517 q 424 600 545 644 q 667 688 789 688 q 881 688 959 663 q 1037 638 1084 587 q 1130 620 1204 661 l 1205 657 q 1141 621 1088 583 z m 922 310 q 900 328 868 328 q 851 328 851 318 q 851 306 884 306 q 903 306 922 310 z"},"K":{"x_min":0,"x_max":785,"ha":785,"o":"m 928 636 q 858 588 804 540 q 751 493 714 449 q 676 406 614 314 q 552 223 499 167 q 446 110 381 69 q 316 27 264 10 q 212 -8 165 -8 q 99 -8 60 20 q 21 48 21 85 q 21 105 32 120 q 44 135 60 135 q 72 135 80 127 q 87 119 87 107 q 87 95 79 87 q 71 79 59 79 q 42 79 36 94 q 35 100 33 100 q 27 100 27 84 q 27 49 66 23 q 105 -2 164 -2 q 221 -2 272 22 q 323 46 372 92 q 421 138 504 242 l 568 319 q 647 417 719 477 l 829 570 q 744 525 696 525 q 670 525 651 538 q 631 551 631 569 q 631 580 641 598 q 650 616 650 620 q 650 639 613 653 q 575 667 530 667 q 442 667 375 618 q 308 570 308 520 q 308 488 334 468 q 361 448 410 448 q 523 448 615 545 l 617 543 q 592 508 532 473 q 473 438 415 438 q 370 438 336 460 q 302 482 302 516 q 302 573 372 622 q 442 670 533 670 q 601 670 641 643 q 681 615 681 589 q 681 583 675 567 q 670 552 670 547 q 670 531 696 531 q 781 531 925 644 z m 814 94 l 818 91 q 705 -6 632 -6 q 604 -6 588 9 q 573 25 573 50 q 573 71 581 91 q 589 110 604 127 q 618 145 672 196 q 725 247 742 270 q 760 292 760 306 q 760 313 754 323 q 732 318 714 318 q 690 318 677 327 q 664 335 664 347 q 664 354 670 360 q 677 366 689 366 q 728 366 756 329 q 791 335 821 356 q 851 376 876 396 q 901 417 990 509 q 1078 601 1142 633 q 1206 665 1255 665 q 1283 665 1303 653 q 1323 640 1323 620 q 1323 607 1316 598 q 1308 589 1297 589 q 1286 589 1277 597 q 1269 606 1269 616 q 1269 626 1276 634 q 1282 642 1293 642 q 1295 645 1295 646 q 1295 649 1284 654 q 1272 659 1256 659 q 1211 659 1166 632 q 1121 605 1040 518 q 958 431 926 407 q 893 383 848 359 q 803 335 758 324 q 770 298 770 278 q 770 255 758 232 q 747 208 694 153 l 637 93 q 595 49 595 23 q 595 -1 627 -1 q 664 -1 708 21 q 753 43 793 76 z m 751 326 q 724 361 689 361 q 669 361 669 346 q 669 337 680 330 q 692 323 716 323 q 732 323 751 326 z"},"R":{"x_min":0,"x_max":891,"ha":891,"o":"m 921 94 l 924 91 q 810 -8 738 -8 q 714 -8 701 4 q 689 17 689 32 q 689 48 699 69 q 709 89 723 105 q 736 121 779 161 l 810 189 q 838 215 838 236 q 838 254 826 273 q 814 272 808 272 q 790 272 776 278 q 763 283 763 292 q 763 296 768 301 q 774 305 782 305 q 810 305 829 277 q 917 289 985 365 q 1053 441 1053 502 q 1053 558 1013 587 q 946 539 891 478 q 836 417 745 291 l 692 219 q 663 178 604 126 q 545 74 456 32 q 367 -9 284 -9 q 210 -9 166 19 q 122 47 122 82 q 122 95 131 107 q 141 119 156 119 q 170 119 180 111 q 190 102 190 90 q 190 79 182 71 q 174 63 163 63 q 154 63 146 69 q 137 75 137 83 q 137 91 133 91 q 126 91 126 82 q 126 52 169 24 q 211 -4 288 -4 q 386 -4 474 59 q 561 122 668 253 l 738 340 q 843 470 1008 590 q 969 626 895 650 q 820 673 724 673 q 522 673 378 566 q 233 459 233 356 q 233 308 277 275 q 321 242 378 242 q 445 242 529 276 q 612 310 661 359 q 709 409 709 459 q 709 493 687 511 q 664 529 625 529 q 542 529 461 479 q 381 429 332 343 l 329 345 q 377 430 458 482 q 539 534 624 534 q 671 534 693 512 q 714 489 714 457 q 714 403 667 350 q 619 296 541 263 q 462 230 393 230 q 331 230 279 267 q 228 304 228 353 q 228 424 299 503 q 369 582 479 629 q 589 677 725 677 q 913 677 1012 594 q 1094 646 1125 657 l 1126 652 q 1084 637 1018 590 q 1077 536 1077 467 q 1077 399 1017 345 q 957 292 832 274 q 847 250 847 223 q 847 202 834 175 q 821 147 775 105 q 729 62 718 47 q 708 31 708 21 q 708 -3 741 -3 q 775 -3 832 30 q 888 63 921 94 z m 821 278 q 804 300 783 300 q 768 300 768 292 q 768 286 779 281 q 791 277 804 277 q 811 277 821 278 z"},"T":{"x_min":0,"x_max":670,"ha":670,"o":"m 1252 653 q 1228 633 1192 621 q 1156 608 1123 608 q 1096 608 963 627 q 831 646 704 646 q 519 646 422 579 q 326 511 326 450 q 326 418 359 394 q 392 370 442 370 q 520 370 600 416 q 679 461 679 513 q 679 536 660 549 q 640 562 614 562 q 557 562 491 530 q 424 497 365 435 l 362 438 q 418 499 486 533 q 554 568 615 568 q 647 568 666 553 q 686 539 686 517 q 686 459 604 412 q 523 365 440 365 q 388 365 354 390 q 320 416 320 447 q 320 482 353 525 q 386 569 450 602 q 514 634 603 649 q 692 663 827 663 q 929 663 1006 657 l 1119 648 q 1161 645 1188 645 q 1222 645 1249 659 z m 955 609 l 867 533 q 831 501 795 460 q 759 419 689 307 q 620 195 562 139 q 505 82 412 40 q 318 -3 220 -3 q 140 -3 96 22 q 51 47 51 87 q 51 107 64 122 q 77 136 95 136 q 109 136 119 127 q 129 118 129 104 q 129 91 120 83 q 111 74 98 74 q 85 74 68 88 q 64 83 64 77 q 64 47 104 25 q 144 2 215 2 q 290 2 355 30 q 420 57 472 107 q 524 157 617 276 l 670 346 q 725 416 812 494 l 952 611 z"},"P":{"x_min":0,"x_max":737,"ha":737,"o":"m 1017 557 q 979 534 939 496 q 899 458 872 425 q 846 392 786 294 q 727 197 666 136 q 606 76 515 36 q 423 -3 326 -3 q 242 -3 192 27 q 141 57 141 99 q 141 119 153 132 q 165 145 183 145 q 197 145 208 135 q 218 126 218 112 q 218 100 209 91 q 201 83 188 83 q 173 83 165 93 q 158 87 158 81 q 158 68 176 46 q 193 24 236 12 q 278 0 328 0 q 402 0 467 28 q 532 56 581 103 q 629 150 688 225 l 741 292 q 815 384 875 444 q 935 504 1015 561 q 998 600 925 637 q 853 674 752 674 q 636 674 529 627 q 422 581 350 503 q 279 425 279 358 q 279 312 320 278 q 361 244 413 244 q 473 244 549 277 q 626 311 689 370 q 753 429 753 480 q 753 513 728 531 q 703 549 666 549 q 585 549 501 491 q 416 434 350 336 l 347 338 q 390 411 481 483 q 573 554 665 554 q 710 554 735 533 q 760 511 760 479 q 760 405 658 321 q 557 237 435 237 q 359 237 317 273 q 274 310 274 356 q 274 428 348 507 q 423 586 526 632 q 630 678 747 678 q 850 678 923 643 q 996 607 1019 564 q 1089 615 1145 644 l 1146 641 l 1089 605 q 1064 590 1021 561 q 1046 514 1046 460 q 1046 390 1004 349 q 962 308 908 308 q 861 308 861 343 q 861 377 909 408 q 958 438 1001 438 l 1001 435 q 948 429 907 401 q 866 373 866 343 q 866 319 889 319 q 928 319 979 373 q 1030 428 1030 490 q 1030 525 1017 557 z"},"|":{"x_min":0,"x_max":500,"ha":500,"o":"m 240 667 l 260 667 l 260 -167 l 240 -167 z"},"t":{"x_min":0,"x_max":199,"ha":199,"o":"m 33 91 l 30 94 l 164 204 l 221 249 l 177 249 l 179 253 l 228 253 l 311 340 l 352 341 l 272 253 l 343 253 l 341 249 l 268 249 l 99 69 q 69 37 63 29 q 57 21 57 13 q 57 6 63 1 q 69 -4 76 -4 q 116 -4 229 94 l 232 91 q 115 -10 75 -10 q 62 -10 53 0 q 44 11 44 25 q 44 62 93 113 l 192 217 l 190 218 z"},"M":{"x_min":0,"x_max":824,"ha":824,"o":"m 854 94 l 858 91 q 742 -9 687 -9 q 670 -9 659 3 q 647 16 647 36 q 647 123 820 324 q 994 525 1167 658 l 1166 661 q 1123 648 1069 616 q 1015 584 940 518 q 865 451 794 373 q 723 295 619 171 q 515 47 486 19 q 457 -9 440 -9 q 429 -9 422 -1 q 416 8 416 19 q 416 34 422 55 q 428 76 457 123 q 486 170 545 242 q 603 315 688 408 q 774 501 810 535 q 846 569 954 657 l 952 660 q 896 640 846 608 q 796 577 728 517 q 660 457 606 400 q 553 343 482 256 q 411 168 370 127 q 330 85 282 52 q 234 19 194 5 q 154 -10 116 -10 q 75 -10 48 9 q 21 28 21 57 q 21 75 33 87 q 44 99 60 99 q 72 99 81 90 q 90 82 90 70 q 90 59 81 51 q 72 43 61 43 q 51 43 41 50 q 39 42 39 38 q 39 20 63 7 q 87 -5 120 -5 q 155 -5 193 9 q 231 22 281 57 q 331 92 368 130 q 404 168 470 248 q 634 448 754 545 q 874 643 975 670 q 894 596 788 475 q 682 354 573 215 q 465 76 433 16 q 431 13 430 10 q 429 6 429 5 q 429 -4 440 -4 q 452 -4 477 16 q 502 37 569 117 l 699 271 q 832 429 961 539 q 1089 649 1193 673 q 1066 562 863 316 q 659 70 659 21 q 659 10 667 3 q 676 -4 687 -4 q 737 -4 854 94 z"},"g":{"x_min":0,"x_max":305,"ha":305,"o":"m 296 190 l 338 190 l 104 -42 q 145 -31 207 4 q 270 39 300 65 l 334 94 l 338 91 q 266 28 199 -7 q 132 -42 96 -49 q -21 -167 -72 -204 q -123 -241 -166 -241 q -178 -241 -186 -235 q -193 -229 -193 -221 q -193 -186 -110 -131 q -28 -76 53 -60 l 154 45 l 153 47 q 81 -9 43 -9 q 28 -9 17 4 q 6 18 6 35 q 6 70 44 106 q 82 142 140 167 q 199 193 233 193 q 245 193 254 187 q 262 181 262 171 q 262 164 257 149 z m 21 18 q 21 -3 42 -3 q 84 -3 170 68 q 255 139 255 169 q 255 188 230 188 q 208 188 176 169 q 144 149 100 111 q 56 73 39 52 q 21 30 21 18 z m 45 -67 q -61 -97 -125 -147 q -188 -197 -188 -220 q -188 -234 -164 -234 q -138 -234 -109 -217 q -80 -199 -4 -119 z"},"j":{"x_min":0,"x_max":164,"ha":164,"o":"m 253 288 q 253 277 244 269 q 236 262 226 262 q 219 262 214 267 q 209 272 209 279 q 209 289 218 297 q 226 305 236 305 q 243 305 248 300 q 253 295 253 288 z m -19 -26 q -21 -28 23 -9 q 66 11 82 19 q 97 27 115 38 q 132 48 152 63 q 172 77 194 94 l 197 91 q 144 50 113 31 q 83 13 26 -13 q -30 -38 -34 -42 l -77 -87 q -133 -146 -194 -192 q -254 -237 -297 -237 q -312 -237 -320 -231 q -329 -225 -329 -216 q -329 -183 -258 -134 q -188 -86 -66 -42 q -40 -10 9 42 l 125 167 l 124 168 l 33 91 l 30 94 q 47 108 80 137 l 142 190 l 185 190 l 166 169 q 134 134 91 89 z m -322 -215 q -322 -231 -296 -231 q -269 -231 -235 -209 q -201 -188 -139 -120 l -78 -53 q -78 -53 -118 -68 q -159 -83 -203 -108 q -247 -132 -275 -155 q -302 -177 -312 -190 q -322 -204 -322 -215 z"},"i":{"x_min":0,"x_max":163,"ha":163,"o":"m 273 286 q 273 275 264 268 q 255 261 246 261 q 239 261 234 266 q 229 271 229 278 q 229 288 237 296 q 246 304 256 304 q 263 304 268 299 q 273 293 273 286 z m 33 91 l 30 94 q 54 115 150 190 l 198 190 l 43 38 q 34 29 31 20 l 31 17 q 31 10 36 5 q 41 0 48 0 q 64 0 93 16 q 121 32 192 94 l 196 91 q 87 -4 49 -4 q 37 -4 29 3 q 21 11 21 24 q 21 43 34 64 q 46 84 127 163 l 126 165 l 82 131 z"},"y":{"x_min":0,"x_max":368,"ha":368,"o":"m 33 91 l 30 94 l 76 133 q 99 153 132 172 q 164 190 183 190 q 194 190 201 183 q 208 175 208 165 q 208 145 193 126 q 178 107 110 47 q 84 24 84 13 q 84 0 99 0 q 119 0 155 23 q 190 45 281 127 l 328 169 q 333 173 347 190 l 394 190 l 187 -28 q 289 -2 398 94 l 402 91 q 280 -14 177 -37 l 125 -91 q 80 -138 18 -184 q -43 -230 -88 -230 q -117 -230 -117 -210 q -117 -181 -52 -135 q 13 -88 126 -53 l 325 155 l 323 157 q 309 146 286 124 l 241 83 q 224 67 185 39 q 146 10 127 2 q 108 -6 95 -6 q 86 -6 77 0 q 68 7 68 21 q 68 59 118 101 q 167 143 179 156 q 191 169 191 177 q 191 185 179 185 q 167 185 137 169 q 108 153 69 121 z m 117 -64 q 35 -83 -38 -133 q -111 -182 -111 -210 q -111 -225 -88 -225 q -56 -225 -24 -204 q 8 -183 76 -110 z"},"@":{"x_min":0,"x_max":512,"ha":512,"o":"m 522 271 q 504 251 482 229 l 409 153 q 389 131 389 122 q 389 115 395 110 q 402 106 410 106 q 453 106 524 183 q 595 259 595 315 q 595 341 572 360 q 548 378 512 378 q 470 378 429 361 q 387 343 328 298 q 269 252 218 197 q 167 142 151 109 q 135 77 135 57 q 135 31 159 16 q 184 1 225 1 q 305 1 390 34 q 475 66 511 108 l 517 105 q 477 61 392 28 q 306 -5 225 -5 q 169 -5 143 21 q 118 46 118 76 q 118 132 183 208 q 249 284 343 334 q 438 384 505 384 q 545 384 573 364 q 600 345 600 315 q 600 292 581 252 q 562 211 504 157 q 447 102 413 102 q 397 102 388 110 q 380 117 380 128 q 380 145 400 177 q 312 103 280 103 q 267 103 259 114 q 252 125 252 141 q 252 191 320 231 q 389 272 432 272 q 457 272 457 252 q 457 247 455 240 l 485 271 z m 451 252 q 451 268 431 268 q 398 268 330 208 q 262 147 262 123 q 262 106 280 106 q 306 106 378 164 q 451 222 451 252 z"},".":{"x_min":0,"x_max":195,"ha":195,"o":"m 75 24 q 75 12 65 3 q 54 -6 42 -6 q 34 -6 28 0 q 22 6 22 15 q 22 26 32 36 q 42 45 54 45 q 63 45 69 39 q 75 33 75 24 z"},"p":{"x_min":0,"x_max":357,"ha":357,"o":"m 34 91 l 30 94 q 102 156 191 222 l 258 271 q 269 280 323 325 l 354 327 l 146 110 l 119 83 l 121 79 q 269 204 318 204 q 331 204 340 193 q 350 183 350 167 q 350 154 341 137 q 333 120 289 85 q 221 33 221 16 q 221 -1 243 -1 q 276 -1 388 94 l 391 91 q 275 -7 241 -7 q 229 -7 220 1 q 210 10 210 27 q 210 43 217 57 q 224 70 235 81 q 246 92 283 122 l 311 145 q 337 166 337 181 q 337 188 331 193 q 325 198 317 198 q 283 198 180 121 q 77 44 -67 -102 l -192 -229 l -240 -229 l 269 269 l 267 272 q 133 176 34 91 z"},"X":{"x_min":0,"x_max":686,"ha":686,"o":"m 716 94 l 720 91 l 687 64 q 649 33 599 12 q 549 -9 517 -9 q 489 -9 467 9 q 445 27 445 59 q 445 96 477 153 q 509 210 564 267 l 560 270 q 472 176 335 83 q 199 -9 101 -9 q 62 -9 43 8 q 24 26 24 46 q 24 121 176 199 q 328 278 600 326 l 650 383 q 699 438 718 467 q 736 496 746 526 q 756 556 756 579 q 756 624 723 649 q 690 675 636 675 q 520 675 408 603 q 296 531 296 472 q 296 439 323 419 q 349 399 384 399 q 427 399 486 423 q 545 446 589 480 q 632 513 682 581 l 685 579 q 637 502 557 448 q 477 394 394 394 q 349 394 320 414 q 291 435 291 467 q 291 534 404 607 q 518 680 636 680 q 699 680 736 647 q 772 615 772 564 q 772 508 717 426 l 736 441 l 832 531 q 881 576 970 628 q 1060 680 1124 680 q 1150 680 1169 664 q 1188 648 1188 627 q 1188 575 1114 515 q 1040 456 904 402 q 769 349 648 332 q 583 262 522 176 q 460 90 460 50 q 460 28 476 12 q 492 -3 517 -3 q 553 -3 607 21 q 661 46 716 94 z m 656 338 q 771 354 912 410 q 1053 467 1117 526 q 1181 584 1181 628 q 1181 646 1165 660 q 1148 673 1123 673 q 1093 673 1059 662 q 1025 650 968 615 q 911 580 867 544 q 823 507 753 440 q 684 373 656 338 z m 593 319 q 313 270 173 189 q 32 108 32 42 q 32 24 49 10 q 66 -4 101 -4 q 175 -4 309 76 q 444 157 593 319 z"},"*":{"x_min":0,"x_max":461,"ha":461,"o":"m 494 231 l 488 230 l 454 322 l 379 244 l 374 250 l 451 327 l 348 345 l 350 351 l 451 334 l 421 418 l 427 420 l 457 335 l 535 415 l 539 410 l 463 332 l 562 315 l 560 309 l 460 326 z"},"Y":{"x_min":0,"x_max":688,"ha":688,"o":"m 1062 562 l 888 395 l 736 239 l 661 156 q 593 83 505 39 q 417 -5 326 -5 q 276 -5 247 15 q 218 36 218 73 q 218 100 233 120 q 248 139 268 139 q 281 139 290 132 q 299 125 299 114 q 299 102 291 94 q 282 86 271 86 q 250 86 247 107 l 244 107 q 235 107 229 97 q 224 87 224 74 q 224 38 252 19 q 279 0 324 0 q 384 0 441 23 q 498 46 547 90 q 597 133 687 231 l 786 338 l 783 341 q 579 157 479 157 q 446 157 430 171 q 415 186 415 207 q 415 235 435 268 q 454 301 471 319 q 489 337 551 385 q 614 433 651 469 q 688 504 702 528 q 716 552 716 578 q 716 618 684 640 q 653 663 605 663 q 528 663 446 628 q 364 594 322 548 q 280 503 280 464 q 280 440 300 426 q 321 411 358 411 q 428 411 514 455 q 601 500 669 583 l 671 580 q 597 485 524 445 q 451 405 367 405 q 318 405 296 421 q 273 438 273 464 q 273 510 323 557 q 373 605 455 636 q 537 668 605 668 q 653 668 689 643 q 726 617 726 563 q 726 538 710 501 q 695 465 666 436 q 637 407 583 364 q 530 321 486 283 q 442 245 432 230 q 422 216 422 199 q 422 183 438 172 q 455 162 478 162 q 524 162 587 198 q 650 234 749 318 l 832 387 q 852 404 890 441 l 1013 562 z"},"c":{"x_min":0,"x_max":187,"ha":187,"o":"m 217 94 l 220 91 q 178 53 126 23 q 74 -7 45 -7 q 7 -7 7 36 q 7 95 79 143 q 150 191 186 191 q 198 191 206 184 q 214 177 214 167 q 214 152 202 139 q 189 126 178 126 q 171 126 166 131 q 161 137 161 143 q 161 151 167 157 q 174 164 183 164 q 191 164 194 158 q 198 151 200 151 q 204 151 207 157 q 209 163 209 167 q 209 176 203 181 q 196 187 188 187 q 159 187 89 111 q 20 36 20 16 q 20 7 27 2 q 34 -2 44 -2 q 75 -2 125 28 q 176 58 217 94 z"},"!":{"x_min":0,"x_max":227,"ha":227,"o":"m 66 52 l 325 335 l 378 337 l 68 50 z m 62 24 q 62 12 52 3 q 41 -6 29 -6 q 21 -6 15 0 q 9 6 9 15 q 9 26 19 36 q 29 45 41 45 q 50 45 56 39 q 62 33 62 24 z"},"/":{"x_min":0,"x_max":361,"ha":361,"o":"m 39 -36 l 757 667 l 760 664 l 42 -39 z"},"[":{"x_min":0,"x_max":317,"ha":317,"o":"m 247 -2 l 141 -2 l 581 667 l 674 667 l 672 664 l 612 664 l 176 1 l 249 1 z"},"6":{"x_min":0,"x_max":300,"ha":300,"o":"m 160 132 l 158 135 q 177 155 214 175 q 251 195 275 195 q 309 195 309 158 q 309 94 235 43 q 161 -8 107 -8 q 57 -8 57 42 q 57 94 110 156 q 164 217 260 275 q 357 333 403 333 q 419 333 428 324 q 437 316 437 303 q 437 291 428 281 q 419 271 407 271 q 399 271 393 276 q 388 282 388 289 q 388 297 394 302 q 400 308 408 308 q 416 308 423 303 q 429 304 429 310 q 429 317 420 323 q 412 328 402 328 q 368 328 311 291 q 253 253 162 156 q 70 59 70 21 q 70 10 78 3 q 86 -4 96 -4 q 125 -4 161 23 q 196 50 223 74 q 250 99 273 126 q 297 153 297 171 q 297 189 275 189 q 262 189 248 184 q 234 180 202 162 q 170 145 160 132 z"},"r":{"x_min":0,"x_max":227,"ha":227,"o":"m 33 91 l 30 94 l 104 155 q 122 169 129 177 q 113 187 113 203 q 113 213 120 221 q 127 229 136 229 q 143 229 148 223 q 153 218 153 210 q 153 202 147 197 q 142 191 134 191 q 129 191 123 195 q 123 193 123 192 q 123 188 129 184 q 136 179 149 179 q 168 179 190 189 l 216 160 q 207 142 178 115 q 149 89 120 59 q 91 29 87 23 q 83 17 83 12 q 83 -2 99 -2 q 118 -2 157 20 q 196 42 256 94 l 260 91 q 146 -7 98 -7 q 84 -7 76 2 q 68 11 68 25 q 68 44 80 62 q 92 81 131 120 q 171 158 186 177 l 184 181 q 164 173 146 173 q 141 173 136 175 z"},"2":{"x_min":0,"x_max":352,"ha":352,"o":"m 121 47 q 159 61 179 61 q 209 61 209 38 q 209 27 202 18 q 194 10 194 6 q 194 0 204 0 q 243 0 338 72 l 341 68 l 305 42 q 289 30 255 11 q 221 -8 203 -8 q 189 -8 179 0 q 170 7 170 16 q 170 24 180 35 q 190 46 190 50 q 190 56 178 56 q 130 56 31 -8 l 28 -3 l 116 51 q 240 126 319 198 q 397 271 397 302 q 397 324 370 324 q 319 324 251 268 q 183 211 183 191 q 183 185 190 179 q 197 173 206 173 q 230 173 285 210 q 340 248 369 283 l 372 281 q 345 247 290 208 q 234 168 203 168 q 188 168 180 178 q 171 187 171 201 q 171 248 240 288 q 309 329 370 329 q 391 329 401 315 q 412 301 412 283 q 412 263 399 239 q 386 215 352 186 q 318 157 252 121 l 120 49 z"},"{":{"x_min":0,"x_max":365,"ha":365,"o":"m 369 341 q 370 341 378 339 q 382 338 385 336 q 388 335 390 333 q 392 332 394 330 q 396 328 397 326 q 399 323 400 321 q 401 318 401 315 q 402 312 402 310 q 402 296 395 282 q 388 269 358 228 l 277 115 q 239 62 239 41 q 239 28 247 19 q 255 11 266 8 q 277 6 311 6 l 307 0 q 227 0 210 8 q 194 15 194 33 q 194 59 239 121 l 344 266 q 364 294 364 310 q 364 321 356 329 q 348 336 315 338 l 318 344 q 355 344 387 358 q 420 372 452 416 l 545 546 q 583 598 617 625 q 651 652 680 659 q 710 666 774 667 l 771 661 q 731 661 706 654 q 681 646 654 623 q 628 601 592 552 l 500 424 q 490 412 481 402 q 473 393 465 386 l 446 372 q 437 365 428 360 q 419 356 408 352 q 398 347 390 345 q 374 341 369 341 z"},"9":{"x_min":0,"x_max":295,"ha":295,"o":"m 33 -2 l 34 2 q 51 -3 64 -3 q 143 -3 272 129 q 401 262 401 298 q 401 310 392 317 q 383 324 372 324 q 320 324 245 253 q 170 182 170 157 q 170 146 177 139 q 184 132 195 132 q 219 132 272 169 q 324 207 354 239 l 356 237 q 336 212 281 169 q 225 127 194 127 q 178 127 167 140 q 157 153 157 171 q 157 227 238 278 q 319 330 364 330 q 412 330 412 285 q 412 226 342 154 q 272 83 191 37 q 110 -9 65 -9 q 49 -9 33 -2 z"}," ":{"x_min":0,"x_max":167,"ha":167,"o":""},"I":{"x_min":0,"x_max":556,"ha":556,"o":"m 579 321 q 462 124 334 59 q 206 -6 103 -6 q 34 -6 -7 18 q -49 42 -49 83 q -49 103 -38 116 q -26 130 -8 130 q 6 130 16 120 q 26 110 26 98 q 26 85 17 76 q 7 66 -6 66 q -20 66 -30 78 q -34 68 -34 62 q -34 42 1 21 q 36 0 100 0 q 208 0 307 66 q 406 132 529 322 q 495 325 472 350 q 449 376 449 411 q 449 471 509 534 q 568 597 693 636 q 818 675 932 675 q 970 675 1011 669 l 1011 666 q 889 654 792 582 q 695 510 583 327 q 652 330 716 384 q 780 438 809 500 l 813 498 q 780 426 716 375 q 652 325 579 321 z m 532 328 q 600 420 641 466 q 681 511 744 558 q 806 604 862 629 q 917 654 987 667 q 959 670 937 670 q 812 670 698 629 q 584 588 521 523 q 458 458 458 401 q 458 372 481 349 q 504 327 526 327 q 527 327 532 328 z"},"H":{"x_min":0,"x_max":788,"ha":788,"o":"m 818 94 l 821 91 q 755 33 704 12 q 652 -9 615 -9 q 591 -9 576 8 q 560 24 560 50 q 560 118 682 257 l 766 351 q 721 344 688 336 q 659 296 653 278 l 624 274 q 634 287 652 307 q 670 327 676 335 l 611 323 q 517 171 387 82 q 257 -7 160 -7 q 114 -7 94 12 q 75 32 75 56 q 75 92 99 122 q 123 152 170 185 q 217 217 300 251 q 383 286 565 323 q 620 391 666 440 q 712 490 754 526 l 842 602 q 753 546 711 546 q 685 546 667 560 q 650 574 650 588 q 650 594 656 607 q 663 621 663 626 q 663 642 625 656 q 587 670 538 670 q 481 670 430 652 q 378 633 351 603 q 323 572 323 545 q 323 514 351 494 q 379 475 423 475 q 522 475 616 554 l 620 549 q 521 467 424 467 q 377 467 347 488 q 316 510 316 542 q 316 595 384 635 q 451 676 537 676 q 601 676 647 652 q 692 628 692 603 q 692 598 686 584 q 680 571 680 568 q 680 561 688 556 q 697 551 711 551 q 736 551 772 567 q 809 584 882 636 l 906 653 q 914 659 929 668 l 932 664 l 872 620 q 819 581 761 521 q 703 462 614 330 l 683 342 l 743 412 l 756 425 l 759 423 q 724 387 694 344 l 771 358 q 867 470 1006 569 q 1145 668 1230 668 q 1256 668 1273 655 q 1290 642 1290 624 q 1290 561 1158 483 q 1026 404 821 361 q 673 195 625 125 q 576 54 576 32 q 576 -2 618 -2 q 708 -2 818 94 z m 827 368 q 951 393 1061 439 q 1170 485 1225 536 q 1280 586 1280 624 q 1280 642 1268 653 q 1255 664 1232 664 q 1165 664 1065 595 q 966 527 827 368 z m 560 316 q 301 263 192 189 q 83 116 83 52 q 83 30 101 14 q 119 -1 160 -1 q 193 -1 226 9 q 259 19 301 45 q 342 72 382 111 q 422 151 468 206 z"},"4":{"x_min":0,"x_max":317,"ha":317,"o":"m 234 86 l 167 16 q 153 1 150 -3 l 100 -1 l 202 93 q 162 109 126 109 q 94 109 43 84 l 42 86 q 79 114 190 211 q 302 308 328 338 l 384 336 q 283 249 195 191 l 153 163 q 116 137 81 109 l 82 107 q 114 115 152 115 q 188 115 214 105 l 310 196 l 339 196 l 246 98 q 263 94 277 94 q 315 94 342 109 l 343 106 q 301 83 254 83 q 245 83 234 86 z"},"~":{"x_min":0,"x_max":667,"ha":667,"o":"m 113 103 l 96 113 q 147 206 219 206 q 260 206 322 172 q 383 138 404 130 q 425 123 446 123 q 478 123 503 143 q 528 163 554 208 l 571 197 q 539 142 510 123 q 480 104 447 104 q 406 104 345 138 q 283 172 262 179 q 242 187 219 187 q 188 187 163 167 q 138 147 113 103 z"},"D":{"x_min":0,"x_max":902,"ha":902,"o":"m 1001 487 q 971 575 891 620 q 811 664 712 664 q 603 664 504 616 q 406 569 332 486 q 257 403 257 342 q 257 302 299 266 q 341 229 414 229 q 549 229 665 301 q 780 374 780 451 q 780 478 754 502 q 728 526 686 526 q 602 526 507 466 q 411 407 339 297 l 335 299 q 401 401 499 465 q 596 530 685 530 q 731 530 758 504 q 784 478 784 451 q 784 372 667 298 q 549 225 414 225 q 336 225 289 267 q 242 310 242 367 q 242 450 306 522 q 370 594 480 632 q 591 669 705 669 q 810 669 890 626 q 971 583 1005 489 q 1021 500 1052 519 l 1107 553 l 1109 549 l 1075 529 q 1062 521 1044 509 l 1006 485 q 1017 454 1017 423 q 1017 331 960 227 q 902 124 797 58 q 692 -8 559 -8 q 487 -8 432 12 q 364 -5 286 -5 q 221 -5 190 7 q 160 18 160 35 q 160 66 238 66 q 296 66 376 43 l 447 19 q 450 18 480 26 q 510 34 538 47 q 567 60 599 84 q 631 107 656 133 q 682 159 748 240 q 890 417 1001 487 z m 458 16 q 458 16 475 11 l 524 1 l 540 0 q 547 -1 555 -2 q 562 -2 569 -2 q 577 -3 584 -3 q 689 -3 792 60 q 895 122 954 226 q 1013 330 1013 424 q 1013 452 1002 481 q 969 458 939 428 q 911 400 878 358 q 851 322 803 249 q 767 193 746 168 q 726 146 700 125 q 668 100 635 81 q 598 60 561 46 q 481 16 458 16 z m 422 15 q 317 59 226 59 q 166 59 166 35 q 166 23 194 11 q 221 0 287 0 q 368 0 422 15 z"},"^":{"x_min":0,"x_max":500,"ha":500,"o":"m 70 393 l 44 393 l 237 667 l 263 667 l 456 393 l 428 393 l 249 651 z"},"0":{"x_min":0,"x_max":302,"ha":302,"o":"m 58 50 q 58 142 188 234 q 319 326 373 326 q 419 326 419 283 q 419 271 402 234 q 385 198 343 153 q 301 107 249 66 q 197 24 165 7 q 132 -10 104 -10 q 58 -10 58 50 z m 413 283 q 413 321 375 321 q 355 321 329 307 q 302 292 248 244 q 193 196 146 145 q 99 94 85 69 q 71 45 71 26 q 71 15 80 5 q 90 -4 107 -4 q 133 -4 163 13 q 194 29 246 71 q 297 113 338 156 q 379 200 396 235 q 413 270 413 283 z"},"F":{"x_min":0,"x_max":713,"ha":713,"o":"m 1258 683 q 1260 683 1242 669 q 1237 665 1231 661 l 1218 653 q 1211 650 1202 647 q 1193 644 1183 641 q 1173 638 1163 636 q 1153 634 1145 633 q 1136 632 1126 632 q 1092 632 1036 639 q 862 662 709 662 q 602 662 547 644 q 492 626 446 599 q 399 571 363 532 q 326 493 326 457 q 326 426 356 403 q 387 380 433 380 q 521 380 601 429 q 680 478 680 530 q 680 549 664 562 q 647 576 619 576 q 515 576 409 472 l 405 474 q 451 526 509 553 q 567 581 619 581 q 652 581 669 565 q 686 549 686 530 q 686 488 640 450 q 594 412 535 394 q 476 375 430 375 q 384 375 352 399 q 320 422 320 453 q 320 524 440 603 q 561 682 826 682 q 919 682 1023 675 q 1127 667 1172 667 q 1178 667 1184 668 q 1190 668 1196 668 q 1202 669 1208 670 q 1214 670 1218 671 l 1228 673 q 1232 674 1237 676 q 1242 677 1248 679 q 1259 683 1258 683 z m 694 321 q 608 159 486 75 q 363 -9 198 -9 q 124 -9 88 16 q 51 41 51 77 q 51 97 64 112 q 77 126 95 126 q 107 126 116 118 q 125 110 125 99 q 125 87 116 78 q 107 69 97 69 q 88 69 79 75 q 70 81 67 88 q 58 87 58 74 q 58 42 93 18 q 129 -5 206 -5 q 351 -5 454 81 q 558 166 658 318 q 642 319 637 319 q 601 319 541 306 q 480 292 420 266 l 418 270 q 547 323 647 323 q 656 323 662 323 q 780 498 954 624 l 955 622 q 878 561 847 529 q 816 498 767 432 q 717 366 697 326 q 734 326 766 332 q 824 412 855 412 q 875 412 875 398 q 875 380 845 358 q 816 336 773 329 q 752 297 741 242 l 704 242 q 719 267 722 271 q 725 274 761 326 q 714 321 704 321 z m 777 336 q 810 340 839 360 q 868 379 868 396 q 868 407 854 407 q 839 407 817 386 q 794 365 777 336 z"},"`":{"x_min":0,"x_max":500,"ha":500,"o":"m 408 223 q 401 223 381 227 q 370 229 359 233 q 348 237 337 242 q 326 248 316 253 q 308 258 303 263 q 298 267 296 270 q 294 273 293 276 q 292 280 292 283 q 292 297 306 297 q 309 297 311 296 q 313 296 315 294 q 317 293 321 289 l 332 275 q 340 267 349 259 q 357 251 365 246 q 372 241 382 235 q 406 223 408 223 z"},"k":{"x_min":0,"x_max":328,"ha":328,"o":"m 33 91 l 30 94 l 136 184 q 175 216 235 249 l 374 384 q 532 539 588 539 q 604 539 614 530 q 623 520 623 509 q 623 494 610 474 q 597 454 558 418 q 519 383 440 335 q 361 288 301 263 q 278 253 268 242 l 49 -2 l 3 -2 l 204 212 l 223 232 l 221 234 q 178 214 104 150 z m 616 508 q 616 518 608 526 q 600 534 587 534 q 578 534 568 530 q 559 526 538 511 q 517 497 464 448 q 411 398 351 332 q 290 266 290 265 q 290 263 336 285 q 382 307 454 351 q 525 396 562 430 q 598 464 607 481 q 616 497 616 508 z m 358 94 l 361 91 q 290 30 259 12 q 228 -5 207 -5 q 190 -5 183 7 q 176 20 176 31 q 176 50 198 69 q 219 89 219 96 q 219 108 197 108 q 176 108 158 103 l 159 108 q 168 110 169 110 l 204 113 q 218 114 227 118 q 236 122 251 138 q 304 193 349 193 q 358 193 365 188 q 371 182 371 174 q 371 168 367 164 q 363 160 357 160 q 346 160 346 171 q 346 177 351 179 q 356 181 356 183 q 356 190 346 190 q 337 190 329 185 q 321 179 305 160 q 275 124 219 110 q 236 100 236 79 q 236 65 229 55 q 223 46 208 33 q 192 20 192 14 q 192 1 209 1 q 251 1 358 94 z"},"u":{"x_min":0,"x_max":324,"ha":324,"o":"m 33 91 l 30 94 q 85 140 107 159 q 129 179 146 190 l 192 190 q 178 175 153 151 l 45 39 q 33 26 30 17 l 30 14 q 30 7 35 2 q 41 -3 49 -3 q 70 -3 111 24 q 152 51 186 83 l 248 142 q 273 165 301 190 l 349 190 q 283 126 244 82 l 212 46 q 188 20 188 11 q 188 -3 207 -3 q 228 -3 262 20 q 296 44 354 94 l 357 91 q 273 18 246 4 q 220 -9 206 -9 q 195 -9 187 -1 q 179 7 179 21 q 179 57 230 108 l 276 156 l 274 159 q 105 -7 48 -7 q 37 -7 28 1 q 20 9 20 23 q 20 55 54 90 l 127 165 l 124 167 q 104 149 33 91 z"},"]":{"x_min":0,"x_max":317,"ha":317,"o":"m 567 667 l 674 667 l 234 -2 l 141 -2 l 143 1 l 203 1 l 639 664 l 565 664 z"},"U":{"x_min":0,"x_max":766,"ha":766,"o":"m 795 94 l 799 91 q 686 -4 631 -4 q 614 -4 604 6 q 593 17 593 32 q 593 55 614 94 q 634 132 762 253 l 758 257 l 636 150 q 460 -4 359 -4 q 333 -4 320 11 q 307 27 307 46 q 307 83 349 140 q 391 196 525 310 q 660 424 709 486 q 758 547 758 583 q 758 623 719 646 q 681 669 626 669 q 502 669 394 600 q 285 531 285 470 q 285 440 311 422 q 337 404 369 404 q 396 404 438 415 q 479 426 533 453 q 587 480 619 507 q 650 534 695 585 l 697 583 q 564 396 384 396 q 338 396 308 416 q 278 436 278 466 q 278 516 342 570 q 405 625 483 649 q 560 674 627 674 q 689 674 728 648 q 768 622 768 572 q 768 536 752 502 q 736 468 703 424 q 670 380 552 277 l 484 217 q 411 153 366 106 q 322 59 322 32 q 322 17 334 9 q 346 1 360 1 q 382 1 403 6 q 423 12 451 25 q 479 39 518 64 q 557 90 610 135 l 822 320 q 858 351 914 407 l 1094 590 l 1142 591 l 662 109 q 604 50 604 23 q 604 14 612 8 q 620 2 630 2 q 687 2 795 94 z"},"o":{"x_min":0,"x_max":216,"ha":216,"o":"m 246 94 l 250 91 q 231 74 212 74 q 197 74 186 85 q 150 47 109 21 q 68 -5 41 -5 q 26 -5 17 5 q 7 16 7 34 q 7 75 44 114 q 81 152 129 173 q 177 194 206 194 q 233 194 233 168 q 233 141 189 89 q 198 79 213 79 q 229 79 246 94 z m 229 169 q 229 179 222 185 q 215 190 206 190 q 169 190 94 116 q 19 42 19 18 q 19 11 26 6 q 33 0 42 0 q 62 0 100 21 q 139 42 168 73 q 197 104 213 128 q 229 152 229 169 z"},"N":{"x_min":0,"x_max":789,"ha":789,"o":"m 625 -1 q 646 28 661 62 q 676 96 694 193 q 712 290 728 341 q 744 393 779 467 q 814 542 837 576 l 834 578 l 710 420 q 541 207 400 100 q 259 -6 142 -6 q 88 -6 55 17 q 21 41 21 77 q 21 102 38 120 q 54 138 74 138 q 86 138 95 130 q 104 122 104 110 q 104 99 97 91 q 89 84 78 84 q 59 84 51 105 q 48 105 46 105 q 31 105 31 79 q 31 44 62 22 q 93 0 144 0 q 244 0 366 80 q 488 161 643 349 q 799 536 857 616 q 871 636 881 646 l 885 644 q 825 578 787 392 l 774 335 q 747 207 655 40 l 657 39 l 792 212 q 965 437 1101 547 q 1237 657 1360 657 q 1407 657 1439 637 q 1470 617 1470 588 q 1470 573 1461 562 q 1452 552 1438 552 q 1429 552 1422 558 q 1416 565 1416 574 q 1416 584 1423 591 q 1431 598 1440 598 q 1444 598 1449 596 q 1454 593 1455 593 q 1461 593 1461 602 q 1461 619 1430 636 q 1398 653 1359 653 q 1235 653 1099 542 q 964 431 760 165 l 631 -6 z"},"+":{"x_min":0,"x_max":400,"ha":400,"o":"m 254 149 l 125 21 l 114 21 l 244 149 l 135 149 l 145 160 l 254 160 l 386 292 l 396 292 l 264 160 l 371 160 l 361 149 z"},"G":{"x_min":0,"x_max":970,"ha":970,"o":"m 1000 94 l 1003 91 q 914 11 776 -21 q 713 -95 687 -121 q 660 -146 608 -176 q 556 -207 508 -222 q 459 -237 412 -237 q 375 -237 358 -226 q 341 -215 341 -198 q 341 -162 393 -133 q 446 -104 516 -84 l 716 -34 q 776 41 832 93 l 948 204 q 820 114 729 84 q 639 55 580 55 q 535 55 504 84 q 472 113 472 160 q 472 210 500 260 q 476 258 458 258 q 354 258 305 301 q 256 344 256 401 q 256 503 363 584 q 469 666 715 680 l 716 675 q 668 675 583 661 q 497 647 427 606 q 357 564 314 503 q 270 442 270 385 q 270 336 317 299 q 364 262 445 262 q 461 262 504 265 q 561 364 682 459 q 804 553 949 609 q 1094 664 1172 664 q 1201 664 1221 652 q 1241 640 1241 620 q 1241 531 991 412 q 741 293 548 264 q 493 185 493 129 q 493 98 520 78 q 546 59 583 59 q 654 59 762 101 q 869 144 1008 257 l 1013 250 q 861 123 779 -15 q 824 -6 888 23 q 953 52 1000 94 z m 552 268 q 706 294 883 369 q 1061 443 1148 510 q 1234 577 1234 623 q 1234 638 1217 648 q 1199 659 1170 659 q 1088 659 969 604 q 850 548 726 447 q 601 345 552 268 z m 710 -42 q 538 -79 443 -119 q 348 -159 348 -200 q 348 -215 364 -224 q 379 -232 409 -232 q 478 -232 546 -195 q 615 -158 710 -42 z"},"q":{"x_min":0,"x_max":304,"ha":304,"o":"m 299 190 l 333 190 l 68 -77 l 69 -80 q 278 41 334 94 l 337 91 q 284 43 213 1 l 49 -96 l -82 -227 l -125 -227 l 156 50 l 155 51 q 70 -7 38 -7 q 6 -7 6 28 q 6 71 50 111 q 93 150 147 170 q 200 190 231 190 q 244 190 253 183 q 262 176 262 165 q 262 159 257 148 z m 255 165 q 255 186 230 186 q 213 186 195 177 q 177 168 134 136 q 90 104 61 75 q 32 46 24 33 q 17 21 17 14 q 17 -2 40 -2 q 57 -2 95 19 q 134 41 183 80 q 232 120 244 135 q 255 150 255 165 z"},"d":{"x_min":0,"x_max":297,"ha":297,"o":"m 557 455 l 597 455 l 251 110 q 168 27 168 12 q 168 5 174 1 q 179 -3 186 -3 q 200 -3 230 16 q 259 36 327 94 l 331 91 l 290 57 q 241 16 220 4 q 199 -8 186 -8 q 175 -8 167 -1 q 159 5 159 17 q 159 41 187 78 l 185 80 q 164 60 125 31 q 86 3 70 -3 q 53 -9 40 -9 q 24 -9 15 2 q 7 13 7 29 q 7 65 39 101 q 72 137 128 162 q 184 187 215 187 q 228 187 237 180 q 246 172 246 161 q 246 154 240 140 z m 240 161 q 240 181 217 181 q 178 181 98 112 q 19 42 19 14 q 19 -3 40 -3 q 62 -3 84 10 q 106 23 152 58 q 198 94 219 118 q 240 143 240 161 z"},"1":{"x_min":0,"x_max":256,"ha":256,"o":"m 400 327 l 92 8 q 92 7 88 -1 l 30 -1 l 367 310 l 93 174 l 91 178 l 396 331 z"},"5":{"x_min":0,"x_max":301,"ha":301,"o":"m 290 309 l 178 204 l 178 202 q 228 231 271 231 q 293 231 307 215 q 320 198 320 175 q 320 135 283 91 q 246 47 184 21 q 122 -5 69 -5 q 44 -5 26 6 q 7 17 7 39 q 7 56 18 68 q 29 81 43 81 q 53 81 60 75 q 66 69 66 61 q 66 51 59 44 q 52 37 42 37 q 33 37 28 43 q 22 49 21 49 q 13 49 13 36 q 13 21 28 11 q 43 1 63 1 q 95 1 131 18 q 167 35 216 79 q 266 123 284 151 q 302 179 302 196 q 302 208 292 217 q 282 226 267 226 q 242 226 202 209 q 163 192 126 159 l 125 162 l 306 335 q 333 310 375 310 q 413 310 443 329 l 444 326 q 401 293 350 293 q 313 293 290 309 z"}}}
